<svg width="35" height="35" viewBox="0 0 35 35" xmlns="http://www.w3.org/2000/svg"><path d="M32.834 26.693l-.154-.464c-.365-1.085-1.56-2.216-2.66-2.514l-4.065-1.11c-1.102-.3-2.675.103-3.482.91l-1.47 1.47c-5.348-1.444-9.54-5.638-10.984-10.984l1.47-1.47c.807-.808 1.21-2.38.91-3.48l-1.11-4.07c-.3-1.1-1.432-2.295-2.514-2.656l-.464-.156c-1.084-.36-2.63.004-3.437.81l-2.2 2.204c-.394.39-.646 1.51-.646 1.514-.078 6.988 2.662 13.72 7.605 18.663 4.93 4.932 11.64 7.668 18.606 7.61.038 0 1.19-.248 1.582-.64l2.2-2.2c.808-.806 1.173-2.353.812-3.437z" stroke-width="3" stroke="#AD353C" fill="none" fill-rule="evenodd"/></svg>